# xmcd
#
# Track frame offsets: 
#        150
#        12893
#        25354
#        38191
#        49087
#        60956
#        73558
#        84997
#        99170
#        111355
#        125144
#        138604
#        149673
#        161562
#        175637
#        188612
#        200698
#        213469
#        225340
#        237276
#        249455
#        260825
#        272363
#        284757
#
# Disc length: 3954 seconds
#
# Revision: 1
# Processed by: cddbd v1.5.2PL0 Copyright (c) Steve Scherf et al.
# Submitted via: ExactAudioCopy v1.1
#
DISCID=5d0f7018
DTITLE=Cecil Campbell and The Tennessee Ramblers - Cecil Campbell_Steel 
DTITLE=Guitar Swing
DYEAR=2004
DGENRE=Instrumental
TTITLE0=Won't You Sometimes Dream Of Me?
TTITLE1=Left All Alone With A Broken Heart
TTITLE2=Put Some Meat On Them Bones
TTITLE3=Steel Guitar Hop (Instr)
TTITLE4=It's Gonna Come Home To You
TTITLE5=Who's Blues Are You Now
TTITLE6=Please Don't Call In Any Help
TTITLE7=Midnight Boogie (Instr)
TTITLE8=North Carolina Skies
TTITLE9=Talk, Talk, Talk
TTITLE10=I Don't Know Why I Should Cry Over You
TTITLE11=Steel Guitar Swing (Instr)
TTITLE12=She's Got The Cutest Eyes
TTITLE13=Time Will Tell
TTITLE14=Catawba River Blues
TTITLE15=Campbell's Steel Guitar Special (Instr)
TTITLE16=I'll Keep On Loving You
TTITLE17=I'm A Hen Pecked Man
TTITLE18=Southern Special
TTITLE19=Tennessee Border
TTITLE20=No Where, No Time, No Place
TTITLE21=All My Natural Life
TTITLE22=Last Night I Cried
TTITLE23=Beaty Steel Blues (Instr)
EXTD=
EXTT0=
EXTT1=
EXTT2=
EXTT3=
EXTT4=
EXTT5=
EXTT6=
EXTT7=
EXTT8=
EXTT9=
EXTT10=
EXTT11=
EXTT12=
EXTT13=
EXTT14=
EXTT15=
EXTT16=
EXTT17=
EXTT18=
EXTT19=
EXTT20=
EXTT21=
EXTT22=
EXTT23=
PLAYORDER=
